# xmcd
#
# Track frame offsets:
#	150
#	8261
#	19525
#	30736
#	40426
#	50957
#	59267
#	68635
#	79407
#	88673
#	100297
#	111373
#	125212
#	138377
#	149480
#	162185
#	169851
#	182343
#	194079
#	206732
#	218134
#	233006
#	245402
#	255253
#	266998
#
# Disc length: 3737 seconds
#
# Revision: 0
# Processed by: cddbd v1.4PL0 Copyright (c) Steve Scherf et al.
# Submitted via: EasyCDDAExtractor 4.5.2.1
#
DISCID=6f0e9719
DTITLE=Various Artist - Rarest Of The Rare  Vol 5
DYEAR=1900
DGENRE=Blues
TTITLE0=Keytones - Time After Time
TTITLE1=Keytones - Lover Of Mine
TTITLE2=Jack and Jill - Just As You Are
TTITLE3=IvoryTones - Little Fool
TTITLE4=Tommy James and Group - Congratulations
TTITLE5=Twilighters - Nothin'
TTITLE6=Five Gents - Rock With Me Marie
TTITLE7=Five Gents - I Never Told You
TTITLE8=Little Joe Steele and Group - Too Young
TTITLE9=Becky Cook and The Ragmops - God Bless This Moment
TTITLE10=Five Chimes - RoseMarie
TTITLE11=L.C. Steels and Group - I Always Will Love You
TTITLE12=Cole and The Grandeurs - Teenage Correl
TTITLE13=Radiants - Joyce
TTITLE14=Matadors - Carmen I Wish You Were Here
TTITLE15=Royal Boys - Lover's Bells
TTITLE16=Fi-Tones - Mr. Faith
TTITLE17=Veneers - With All My Heart
TTITLE18=Donny Marchand and Group - Round In Circles
TTITLE19=Tony Dell and Group - In The Still Of The Night
TTITLE20=Charades - Darling Believe Him
TTITLE21=Heartbreakers - Love You Till The Day I Die
TTITLE22=Kents - I Love You So
TTITLE23=Tiny Tip and The Tip Tops - I Said A Prayer
TTITLE24=Ringleaders - This Is Goodbye
EXTD=
EXTT0=
EXTT1=
EXTT2=
EXTT3=
EXTT4=
EXTT5=
EXTT6=
EXTT7=
EXTT8=
EXTT9=
EXTT10=
EXTT11=
EXTT12=
EXTT13=
EXTT14=
EXTT15=
EXTT16=
EXTT17=
EXTT18=
EXTT19=
EXTT20=
EXTT21=
EXTT22=
EXTT23=
EXTT24=
PLAYORDER=
